<?xml version="1.0" encoding="iso-8859-1"?>
<!-- Uploaded to: SVG Repo, www.svgrepo.com, Generator: SVG Repo Mixer Tools -->
<svg fill="#ffffff" height="800px" width="800px" version="1.1" id="Layer_1" xmlns="http://www.w3.org/2000/svg" xmlns:xlink="http://www.w3.org/1999/xlink" 
	 viewBox="0 0 512 512" xml:space="preserve">
<g>
	<g>
		<path d="M8.926,0v63.284h374.473V0H8.926z M52.916,43.227H29.736V20.047h23.181V43.227z M94.629,43.227H71.448V20.047h23.181
			V43.227z"/>
	</g>
</g>
<g>
	<g>
		<path d="M8.926,160.854v63.284h374.473v-63.284H8.926z M52.916,204.081H29.736v-23.181h23.181V204.081z M94.629,204.081H71.448
			v-23.181h23.181V204.081z"/>
	</g>
</g>
<g>
	<g>
		<polygon points="356.625,94.624 340.956,94.624 51.37,94.624 35.701,94.624 20.031,94.624 20.031,129.515 35.701,129.515 
			51.37,129.515 340.956,129.515 356.625,129.515 372.295,129.515 372.295,94.624 		"/>
	</g>
</g>
<g>
	<g>
		<path d="M8.926,322.356v62.637h253.806c3.646-22.815,13.027-44.335,27.234-62.522c0.031-0.042,0.063-0.073,0.094-0.115H8.926z
			 M52.916,366.45H29.736v-23.181h23.181V366.45z M94.629,366.45H71.448v-23.181h23.181V366.45z"/>
	</g>
</g>
<g>
	<g>
		<path d="M20.031,255.478v34.891h305.735c6.477-4.011,13.277-7.49,20.371-10.384c3.594-1.452,7.229-2.758,10.906-3.897
			c5.014-1.567,10.102-2.831,15.252-3.802v-16.808H20.031z"/>
	</g>
</g>
<g>
	<g>
		<path d="M275.08,467.018c-2.518-5.087-4.701-10.311-6.55-15.67c-3.374-9.684-5.651-19.775-6.748-30.054
			c-0.167-1.609-0.313-3.228-0.428-4.847c0-0.042-0.01-0.073-0.01-0.115H20.031v66.23h264.023
			C280.711,477.589,277.723,472.387,275.08,467.018z"/>
	</g>
</g>
<g>
	<g>
		<path d="M397.7,301.254c-0.7,0-1.4,0.01-2.089,0.021h-0.094c-0.501,0.01-1.003,0.021-1.504,0.052c-0.24,0-0.47,0.01-0.71,0.021
			c-0.282,0.01-0.564,0.021-0.846,0.042c-0.084,0-0.178,0.01-0.261,0.01c-0.167,0.01-0.334,0.021-0.501,0.031
			c-0.209,0.01-0.407,0.021-0.606,0.031c-0.209,0.021-0.418,0.031-0.627,0.042c-0.303,0.031-0.595,0.052-0.898,0.073
			c-0.084,0-0.178,0.01-0.261,0.021c-0.24,0-0.481,0.021-0.721,0.063c-0.491,0.021-0.982,0.073-1.462,0.125
			c-0.031,0-0.073,0.01-0.115,0.01c-0.219,0.021-0.439,0.042-0.658,0.073c-0.104,0.01-0.198,0.021-0.293,0.031
			c-0.397,0.031-0.794,0.084-1.191,0.136c-0.439,0.042-0.867,0.104-1.306,0.167c-0.073,0.01-0.146,0.021-0.219,0.031
			c-0.157,0.01-0.303,0.031-0.46,0.063c-0.345,0.052-0.679,0.104-1.013,0.146c-0.313,0.042-0.616,0.084-0.919,0.146
			c-0.094,0.01-0.188,0.021-0.282,0.052c-0.209,0.021-0.418,0.063-0.627,0.104c-0.063,0.01-0.136,0.021-0.198,0.031
			c-0.178,0.031-0.355,0.063-0.533,0.094c-0.188,0.031-0.366,0.052-0.543,0.094c-0.345,0.052-0.689,0.115-1.024,0.188
			c-0.198,0.042-0.386,0.073-0.585,0.104c-0.554,0.115-1.118,0.23-1.671,0.355c-0.125,0.021-0.251,0.063-0.376,0.084
			c-0.313,0.073-0.627,0.136-0.93,0.209c-0.178,0.042-0.345,0.084-0.512,0.115c-0.167,0.031-0.334,0.073-0.501,0.115
			c-0.084,0.021-0.178,0.042-0.261,0.063c-0.428,0.104-0.846,0.198-1.274,0.324c-0.334,0.073-0.658,0.167-0.992,0.261
			c-0.387,0.094-0.773,0.198-1.16,0.303c-0.606,0.167-1.212,0.334-1.807,0.522c-0.198,0.052-0.386,0.104-0.585,0.167
			c-0.146,0.052-0.303,0.094-0.449,0.146c-0.501,0.146-1.003,0.313-1.504,0.481c-0.073,0.021-0.157,0.042-0.23,0.073
			c-0.063,0.021-0.115,0.031-0.178,0.063c-0.554,0.167-1.097,0.355-1.64,0.554c-0.042,0.01-0.084,0.031-0.125,0.042
			c-0.345,0.125-0.69,0.24-1.034,0.366c-0.543,0.188-1.097,0.397-1.64,0.606c-0.115,0.042-0.219,0.084-0.334,0.125
			c-0.669,0.251-1.327,0.512-1.985,0.783c-1.013,0.418-2.027,0.846-3.029,1.295c-0.501,0.219-1.003,0.449-1.504,0.679
			c-0.71,0.324-1.421,0.658-2.121,1.003c-0.157,0.084-0.313,0.167-0.481,0.24c-0.93,0.46-1.849,0.94-2.768,1.431
			c-0.491,0.261-0.971,0.522-1.452,0.783c-0.084,0.042-0.157,0.094-0.24,0.136c-1.463,0.815-2.894,1.671-4.304,2.549
			c-0.23,0.146-0.449,0.282-0.679,0.428c-0.355,0.219-0.71,0.449-1.065,0.69c-0.209,0.125-0.418,0.261-0.616,0.397
			c-0.188,0.125-0.366,0.24-0.543,0.366c-0.616,0.418-1.222,0.836-1.828,1.243c-0.063,0.052-0.125,0.094-0.188,0.136
			c-0.648,0.449-1.285,0.909-1.912,1.379c-0.021,0.031-0.052,0.042-0.073,0.052c-0.292,0.209-0.575,0.439-0.867,0.648
			c-1.494,1.128-2.946,2.288-4.377,3.489c-0.324,0.272-0.648,0.543-0.961,0.815c-0.209,0.178-0.418,0.366-0.627,0.543
			c-0.031,0.021-0.052,0.052-0.084,0.073c-0.679,0.606-1.337,1.201-1.995,1.807c-0.031,0.021-0.052,0.042-0.073,0.063
			c-0.324,0.293-0.648,0.595-0.961,0.909c-0.24,0.219-0.481,0.439-0.71,0.669c-0.094,0.094-0.188,0.188-0.282,0.282l-0.136,0.136
			c-0.042,0.042-0.084,0.094-0.136,0.146c-0.136,0.136-0.282,0.272-0.418,0.407c-0.428,0.407-0.846,0.836-1.264,1.254
			c-0.564,0.585-1.128,1.17-1.682,1.765c-0.554,0.606-1.097,1.201-1.63,1.807c-0.303,0.334-0.595,0.658-0.888,1.003
			c-0.261,0.303-0.512,0.585-0.763,0.898c-0.293,0.324-0.575,0.669-0.867,1.024c-0.021,0.021-0.042,0.052-0.063,0.084
			c-0.042,0.052-0.084,0.104-0.115,0.136c-0.303,0.366-0.606,0.731-0.888,1.097c-0.031,0.042-0.073,0.094-0.104,0.136
			c-0.261,0.324-0.522,0.658-0.773,0.982c-0.073,0.084-0.146,0.188-0.219,0.272c-0.01,0.021-0.031,0.031-0.031,0.052
			c-0.219,0.272-0.428,0.543-0.627,0.815c-0.198,0.251-0.387,0.501-0.564,0.752c-0.01,0.01-0.021,0.01-0.021,0.021
			c-0.073,0.104-0.146,0.198-0.219,0.303c-0.052,0.073-0.104,0.136-0.157,0.209c-0.094,0.136-0.198,0.261-0.282,0.397
			c-0.115,0.167-0.24,0.334-0.366,0.501c-0.491,0.679-0.971,1.358-1.431,2.047c-0.021,0.021-0.031,0.031-0.031,0.052
			c-0.24,0.366-0.481,0.71-0.71,1.055c-0.293,0.449-0.585,0.898-0.867,1.337c-0.24,0.366-0.481,0.742-0.71,1.118
			c-0.094,0.146-0.178,0.292-0.272,0.439c-0.178,0.292-0.366,0.585-0.543,0.877c-0.031,0.042-0.052,0.094-0.084,0.136
			c-0.522,0.867-1.034,1.755-1.536,2.643c-0.084,0.157-0.178,0.313-0.272,0.48c-0.084,0.157-0.178,0.324-0.261,0.481
			c-0.345,0.637-0.689,1.264-1.024,1.891c-0.491,0.919-0.961,1.849-1.4,2.789c-0.021,0.01-0.021,0.01-0.01,0.021
			c-0.24,0.491-0.47,0.961-0.689,1.442c-0.125,0.261-0.251,0.543-0.366,0.815c-0.031,0.052-0.052,0.115-0.073,0.157
			c-0.178,0.387-0.345,0.773-0.512,1.16c-0.104,0.23-0.209,0.46-0.313,0.7c-0.188,0.439-0.376,0.878-0.554,1.316
			c-0.063,0.157-0.136,0.313-0.198,0.47c-0.188,0.46-0.376,0.919-0.554,1.379c-0.104,0.261-0.198,0.512-0.293,0.752
			c-0.094,0.251-0.188,0.491-0.282,0.742c-0.094,0.251-0.188,0.501-0.282,0.752c-0.042,0.125-0.094,0.251-0.136,0.376
			c-0.094,0.251-0.178,0.491-0.261,0.731c-0.084,0.251-0.167,0.491-0.251,0.742c-0.136,0.397-0.272,0.804-0.407,1.222
			c-0.157,0.428-0.292,0.878-0.439,1.316c-0.073,0.219-0.136,0.449-0.209,0.679c-0.031,0.084-0.063,0.178-0.084,0.261
			c-0.021,0.073-0.042,0.136-0.063,0.209c-0.376,1.222-0.742,2.455-1.055,3.698c-0.084,0.313-0.167,0.616-0.24,0.919
			c0,0.01-0.01,0.031-0.01,0.042c-0.084,0.334-0.167,0.669-0.24,1.003c-0.282,1.149-0.554,2.319-0.794,3.489
			c0,0.021-0.01,0.031-0.01,0.052c0,0.01-0.01,0.031-0.01,0.042c-0.031,0.178-0.084,0.366-0.115,0.543
			c-0.01,0.042-0.021,0.094-0.021,0.136c-0.063,0.303-0.115,0.585-0.178,0.888v0.01c-0.01,0.073-0.021,0.136-0.042,0.209
			c-0.031,0.23-0.073,0.449-0.115,0.679c-0.031,0.167-0.063,0.345-0.094,0.512c-0.063,0.376-0.125,0.742-0.198,1.118
			c0,0.052-0.01,0.104-0.021,0.157c-0.115,0.679-0.219,1.358-0.313,2.037c-0.052,0.334-0.104,0.658-0.146,1.003
			c-0.01,0.094-0.031,0.198-0.042,0.293c-0.094,0.7-0.178,1.4-0.261,2.089c-0.063,0.501-0.115,1.003-0.146,1.504
			c-0.01,0.042-0.01,0.084-0.021,0.136c-0.125,1.295-0.219,2.591-0.292,3.907c-0.01,0.136-0.021,0.272-0.031,0.407v0.073
			c-0.104,1.912-0.167,3.844-0.167,5.777c0,0.481,0.01,0.961,0.01,1.442c0.01,0.595,0.021,1.18,0.052,1.765
			c0.01,0.387,0.021,0.773,0.042,1.16c0.01,0.387,0.031,0.763,0.052,1.139v0.063c0.042,0.784,0.084,1.577,0.157,2.361
			c0.021,0.292,0.042,0.585,0.063,0.878c0.01,0.303,0.042,0.606,0.084,0.898c0.031,0.543,0.084,1.086,0.146,1.63
			c0.167,1.557,0.366,3.103,0.606,4.638c0.01,0.052,0.01,0.094,0.021,0.146v0.01c0.115,0.721,0.23,1.431,0.355,2.141
			c0.063,0.376,0.136,0.752,0.209,1.139c0.042,0.209,0.073,0.418,0.115,0.627c0.104,0.554,0.209,1.097,0.334,1.64
			c0.073,0.376,0.157,0.752,0.24,1.118c0.104,0.491,0.209,0.961,0.324,1.442c0.063,0.272,0.136,0.543,0.198,0.815
			c0.042,0.167,0.073,0.324,0.115,0.491c0.136,0.564,0.282,1.139,0.439,1.703c0,0,0,0.021,0.01,0.031
			c0.198,0.742,0.397,1.473,0.616,2.194c0.418,1.431,0.867,2.852,1.337,4.273c0.052,0.146,0.104,0.293,0.157,0.439
			c0.24,0.689,0.481,1.368,0.731,2.058c0.23,0.616,0.46,1.233,0.7,1.839c0.104,0.292,0.219,0.585,0.334,0.867
			c0.157,0.418,0.334,0.825,0.501,1.233c0.136,0.345,0.282,0.7,0.439,1.045c0.084,0.198,0.167,0.397,0.251,0.595
			c0.272,0.627,0.543,1.243,0.825,1.859c0.094,0.209,0.188,0.418,0.292,0.637l0.188,0.407c0.052,0.115,0.104,0.209,0.157,0.334
			c0.084,0.167,0.157,0.324,0.24,0.491c0.01,0.021,0.021,0.042,0.031,0.073c0.198,0.407,0.397,0.804,0.595,1.201
			c0.063,0.125,0.136,0.272,0.209,0.428c0.052,0.094,0.094,0.198,0.157,0.292c0.136,0.293,0.282,0.564,0.428,0.846
			c0.073,0.136,0.146,0.282,0.219,0.418c0.136,0.272,0.272,0.533,0.418,0.804c0.073,0.136,0.146,0.272,0.219,0.407
			c0.136,0.261,0.282,0.512,0.428,0.773c0.178,0.334,0.366,0.669,0.554,0.992c0.188,0.324,0.376,0.648,0.564,0.982
			c0.376,0.648,0.763,1.306,1.16,1.953c0.188,0.313,0.387,0.637,0.585,0.951c0.178,0.293,0.355,0.575,0.554,0.867
			c0.376,0.595,0.773,1.191,1.16,1.786c0.219,0.345,0.449,0.679,0.689,1.013c0.073,0.125,0.157,0.24,0.24,0.355
			c0.261,0.387,0.522,0.773,0.804,1.149c0.355,0.512,0.721,1.013,1.097,1.515c0,0,0.01,0.01,0.021,0.021
			c0.345,0.491,0.7,0.961,1.066,1.442c0.042,0.052,0.084,0.115,0.125,0.167c0.146,0.188,0.292,0.386,0.439,0.575
			c0.084,0.094,0.157,0.198,0.24,0.292c0.261,0.334,0.512,0.648,0.763,0.972c0.073,0.094,0.157,0.198,0.23,0.292l0.031,0.031
			c0.021,0.031,0.052,0.063,0.084,0.104c0.01,0.021,0.031,0.031,0.042,0.052c0.313,0.387,0.627,0.773,0.961,1.16
			c0.272,0.334,0.554,0.679,0.846,1.013c0.167,0.209,0.345,0.407,0.522,0.606c0.345,0.397,0.71,0.804,1.076,1.212
			c0.031,0.042,0.073,0.094,0.115,0.136c0.355,0.407,0.721,0.794,1.097,1.191c0.104,0.115,0.209,0.23,0.324,0.345
			c1.003,1.097,2.047,2.141,3.103,3.186v0.01c0.157,0.157,0.313,0.303,0.47,0.449c0.115,0.104,0.219,0.209,0.334,0.324
			c0.042,0.042,0.094,0.084,0.136,0.125c0.595,0.564,1.191,1.118,1.797,1.682c0.543,0.491,1.097,1.003,1.651,1.483
			c0.063,0.052,0.115,0.104,0.178,0.157c0.616,0.543,1.243,1.065,1.87,1.588c0.595,0.512,1.191,0.992,1.797,1.473
			c0.042,0.031,0.073,0.063,0.115,0.094c0.261,0.198,0.522,0.397,0.784,0.616c0.261,0.198,0.512,0.407,0.783,0.606
			c0.146,0.115,0.292,0.219,0.439,0.334c0.115,0.084,0.23,0.167,0.345,0.261c0.052,0.042,0.104,0.073,0.157,0.115
			c0.345,0.272,0.71,0.533,1.076,0.794c0.042,0.021,0.073,0.052,0.115,0.073c0.178,0.136,0.366,0.261,0.554,0.397
			c0.042,0.042,0.073,0.063,0.115,0.084c0.366,0.272,0.752,0.543,1.128,0.804c0.063,0.042,0.115,0.084,0.178,0.125
			c0.021,0.01,0.042,0.031,0.063,0.031c0.136,0.104,0.282,0.198,0.418,0.292c0.397,0.272,0.784,0.543,1.191,0.804
			c0.188,0.136,0.386,0.261,0.585,0.387c0.815,0.533,1.64,1.065,2.476,1.567c0.585,0.376,1.18,0.731,1.786,1.065
			c0.324,0.198,0.658,0.387,0.982,0.585c0.146,0.084,0.292,0.167,0.439,0.251c0.293,0.167,0.585,0.324,0.878,0.491
			c0.115,0.052,0.219,0.115,0.324,0.167c0.491,0.272,0.982,0.543,1.483,0.804c0.188,0.104,0.366,0.198,0.554,0.292
			c0.387,0.209,0.784,0.407,1.17,0.606c0.658,0.334,1.316,0.658,1.974,0.971c0.094,0.042,0.198,0.094,0.292,0.136
			c0.71,0.345,1.431,0.669,2.142,0.992c0.063,0.031,0.125,0.063,0.198,0.094c0.251,0.104,0.501,0.219,0.752,0.324
			c0.386,0.167,0.773,0.334,1.17,0.501c0.292,0.125,0.595,0.251,0.898,0.376c0.209,0.084,0.428,0.178,0.637,0.261
			c0.585,0.24,1.18,0.46,1.776,0.7c0.387,0.146,0.773,0.292,1.17,0.428c0.386,0.157,0.783,0.292,1.18,0.439
			c0.627,0.219,1.264,0.439,1.901,0.658c0.731,0.24,1.452,0.481,2.183,0.7c0.167,0.052,0.345,0.104,0.512,0.157
			c0.47,0.146,0.94,0.282,1.41,0.418c0.073,0.021,0.146,0.042,0.219,0.063c0.251,0.073,0.491,0.136,0.731,0.209
			c0.24,0.063,0.481,0.136,0.731,0.198c0.324,0.073,0.648,0.178,0.982,0.261c0.324,0.084,0.648,0.178,0.982,0.251
			c0.084,0.01,0.167,0.031,0.251,0.063c0.501,0.125,1.013,0.251,1.525,0.366c0.272,0.063,0.543,0.125,0.815,0.188
			c0.063,0.01,0.125,0.031,0.198,0.042c0.512,0.115,1.024,0.219,1.536,0.334c0.209,0.042,0.428,0.073,0.637,0.125
			c0.543,0.115,1.097,0.209,1.651,0.313c0.042,0.01,0.073,0.01,0.115,0.021c0.125,0.021,0.24,0.042,0.366,0.063
			c0.125,0.021,0.24,0.042,0.366,0.063c0.481,0.073,0.961,0.157,1.442,0.24c0.031,0.01,0.052,0.01,0.084,0.01
			c0.136,0.031,0.272,0.052,0.407,0.063c0.501,0.084,0.992,0.146,1.494,0.219c0.219,0.042,0.449,0.073,0.679,0.094
			c0.157,0.021,0.324,0.052,0.481,0.073c0.178,0.021,0.355,0.031,0.533,0.063c0.648,0.084,1.295,0.157,1.943,0.219
			c0.136,0.021,0.282,0.031,0.418,0.042c0.669,0.073,1.327,0.136,1.995,0.178c0.167,0.021,0.345,0.042,0.512,0.052
			c0.063,0,0.115,0,0.167,0.01h0.042c0.867,0.073,1.734,0.125,2.612,0.167c0.637,0.021,1.285,0.063,1.922,0.073
			c0.104,0.01,0.198,0.01,0.303,0.01c0.334,0.021,0.669,0.021,1.013,0.031h0.031C396.311,512,397,512,397.7,512
			c9.997,0,19.681-1.389,28.843-4.001c1.671-0.47,3.322-0.982,4.952-1.536c4.085-1.379,8.044-3.009,11.888-4.858
			c3.834-1.849,7.553-3.917,11.115-6.205c2.131-1.379,4.22-2.821,6.247-4.335c4.064-3.04,7.898-6.362,11.47-9.935
			c19.065-19.065,30.859-45.411,30.859-74.504C503.074,348.43,455.898,301.254,397.7,301.254z M453.15,423.32L453.15,423.32h-39.78
			v41.838h-31.339V423.32h-39.78v-31.339h39.78v-41.848h31.339v41.848h39.78V423.32z"/>
	</g>
</g>
</svg>